<svg id="Layer_1" data-name="Layer 1" xmlns="http://www.w3.org/2000/svg" viewBox="0 0 969.27 1203.83"><defs><style>.cls-1{fill:#000000;}</style></defs><polygon class="cls-1" points="850.25 543.56 850.25 933.73 736.15 933.73 551.9 626.69 513.62 686.86 671.41 935.02 613.36 935.02 484.77 732.32 356.1 935.02 298.06 935.02 455.85 686.86 417.56 626.69 233.32 933.73 119.01 933.73 119.01 543.56 167.89 543.56 167.89 884.84 205.49 884.84 410.38 543.56 422.55 543.56 484.77 641.26 546.71 543.56 558.88 543.56 763.77 884.84 801.37 884.84 801.37 543.56 850.25 543.56"/><polygon class="cls-1" points="850.25 120.31 850.25 510.47 801.37 510.47 801.37 169.19 763.77 169.19 558.88 510.47 546.71 510.47 484.49 412.78 422.55 510.47 410.38 510.47 205.49 169.19 167.89 169.19 167.89 510.47 119.01 510.47 119.01 120.31 233.11 120.31 417.36 427.34 455.64 367.18 297.85 119.01 355.9 119.01 484.49 321.78 613.16 119.01 671.2 119.01 513.41 367.18 551.7 427.34 735.94 120.31 850.25 120.31"/><path class="cls-1" d="M155.24,1084.82H142.6l-7.69-52.14v52.14H119v-119h15.9l14.27,65.82,13.89-65.82h16.42v119H163.2v-53.19Z"/><path class="cls-1" d="M213,1084.82H197V965.68h16Z"/><path class="cls-1" d="M257.57,1084.82v-43.27c0-2.26-.75-3.85-2.22-4.76s-4.3-1.33-8.47-1.24v49.27h-16.3V965.68h21.64a33.59,33.59,0,0,1,8.93,1,18.47,18.47,0,0,1,6.84,3.65,13.85,13.85,0,0,1,4.57,5.61,17.29,17.29,0,0,1,1.3,6.65v37a11.36,11.36,0,0,1-.91,4.88,10.78,10.78,0,0,1-2,2.94,6.21,6.21,0,0,1-2.73,1.69,10.58,10.58,0,0,1,2.73,2.22,12.7,12.7,0,0,1,2,3.13,11.45,11.45,0,0,1,.91,4.82v45.49Zm0-67.39c-.09-2.44-.11-5.69-.07-9.77s.07-8.09.07-12V981.19a3.6,3.6,0,0,0-1.57-3,6.06,6.06,0,0,0-3.78-1.17h-5.34v46c1.82,0,3.41,0,4.76-.13a11,11,0,0,0,3.32-.66,3.83,3.83,0,0,0,2-1.62A6.36,6.36,0,0,0,257.57,1017.43Z"/><path class="cls-1" d="M316.49,1084.82v-43.27c0-2.26-.75-3.85-2.22-4.76s-4.3-1.33-8.47-1.24v49.27H289.5V965.68h21.64a33.59,33.59,0,0,1,8.93,1,18.54,18.54,0,0,1,6.84,3.65,13.85,13.85,0,0,1,4.57,5.61,17.29,17.29,0,0,1,1.3,6.65v37a11.36,11.36,0,0,1-.91,4.88,10.78,10.78,0,0,1-2,2.94,6.19,6.19,0,0,1-2.74,1.69,10.46,10.46,0,0,1,2.74,2.22,12.7,12.7,0,0,1,2,3.13,11.45,11.45,0,0,1,.91,4.82v45.49Zm0-67.39c-.09-2.44-.11-5.69-.07-9.77s.07-8.09.07-12V981.19a3.6,3.6,0,0,0-1.57-3,6.06,6.06,0,0,0-3.78-1.17H305.8v46c1.82,0,3.41,0,4.76-.13a11,11,0,0,0,3.32-.66,3.83,3.83,0,0,0,1.95-1.62A6.36,6.36,0,0,0,316.49,1017.43Z"/><path class="cls-1" d="M392.34,1069.18q0,7.29-6.38,12.38a23.43,23.43,0,0,1-15.25,5.09,24,24,0,0,1-15.39-5.09q-6.26-5.08-6.26-12.38V981.59q0-7.3,6.26-12.39a24,24,0,0,1,15.39-5.08A23.42,23.42,0,0,1,386,969.2q6.38,5.09,6.38,12.39ZM376.05,980a3.57,3.57,0,0,0-1.56-3,6.12,6.12,0,0,0-7.57,0,3.57,3.57,0,0,0-1.56,3v90.72a3.6,3.6,0,0,0,1.56,3,6.16,6.16,0,0,0,7.57,0,3.6,3.6,0,0,0,1.56-3Z"/><path class="cls-1" d="M433,1084.82v-43.27q0-3.39-2.22-4.76c-1.48-.91-4.3-1.33-8.47-1.24v49.27H406V965.68h21.64a33.51,33.51,0,0,1,8.92,1,18.47,18.47,0,0,1,6.84,3.65A13.77,13.77,0,0,1,448,976a17.1,17.1,0,0,1,1.3,6.65v37a11.21,11.21,0,0,1-.91,4.88,11,11,0,0,1-1.95,2.94,6.3,6.3,0,0,1-2.74,1.69,10.79,10.79,0,0,1,2.74,2.22,13,13,0,0,1,1.95,3.13,11.3,11.3,0,0,1,.91,4.82v45.49Zm0-67.39c-.09-2.44-.11-5.69-.07-9.77s.07-8.09.07-12V981.19a3.58,3.58,0,0,0-1.57-3,6,6,0,0,0-3.77-1.17h-5.35v46c1.83,0,3.41,0,4.76-.13a11,11,0,0,0,3.32-.66,3.86,3.86,0,0,0,2-1.62A6.48,6.48,0,0,0,433,1017.43Z"/><path class="cls-1" d="M496.88,1084.82H465V965.68h31.93v13H481v40.15h10.55v13H481v39.88h15.9Z"/><path class="cls-1" d="M548.12,1080.13a20.3,20.3,0,0,1-6.69,3.58,30.42,30.42,0,0,1-8.9,1.11H511.09V965.68h21.44a33.93,33.93,0,0,1,9.1,1,19,19,0,0,1,6.49,3.45,14.57,14.57,0,0,1,4.68,5.74,16.57,16.57,0,0,1,1.43,6.78v85.12a15.67,15.67,0,0,1-1.43,6.64A15.93,15.93,0,0,1,548.12,1080.13Zm-20.74-6.65h5.28a6,6,0,0,0,2.06-.33,7.38,7.38,0,0,0,1.8-1,3.38,3.38,0,0,0,1.42-2.88V981.06a3.33,3.33,0,0,0-1.42-2.86,6,6,0,0,0-3.86-1.31h-5.28Z"/><path class="cls-1" d="M602.33,1084.82,589.82,965.68h16l5.47,59.57,7-59.57h16.16l7.17,59.57,5.22-59.57h16l-12.38,119.14h-16L626.44,1026l-8.08,58.79Z"/><path class="cls-1" d="M686,1073l-1.82,11.86h-16l16-119.14h15.9l16,119.14h-16L698.27,1073Zm6.13-61.92L688,1059.92h8.34Z"/><path class="cls-1" d="M741.66,1071.78h16v13H725.63V965.68h16Z"/><path class="cls-1" d="M783.12,1071.78h16v13H767.09V965.68h16Z"/><path class="cls-1" d="M843.21,1082q-5.87,4.56-14.6,4.57a24,24,0,0,1-14.73-4.57q-6.12-4.56-6.9-11.21V1040.5l16.29-.13v30.24a3.59,3.59,0,0,0,1.57,3,6,6,0,0,0,3.77,1.3,6.81,6.81,0,0,0,3.78-1.3,3.62,3.62,0,0,0,1.57-3v-34.15c0-2.86-1.62-4.3-4.83-4.3h-1a22.88,22.88,0,0,1-15.64-5.73q-5.48-5.09-5.47-11.73V981.59q0-7.17,6.25-12.26a23.59,23.59,0,0,1,15.38-5.21q9.12,0,15.25,5.21,6.39,5.22,6.39,12.26v23.72H834V980.15a3.7,3.7,0,0,0-1.57-3.12,6.75,6.75,0,0,0-3.78-1.31,5.94,5.94,0,0,0-3.77,1.31,3.68,3.68,0,0,0-1.57,3.12v33.24a3.81,3.81,0,0,0,1.3,3,4.72,4.72,0,0,0,3.52,1.31h3q6.9,0,11.34,2.87a16.32,16.32,0,0,1,5.74,6.51,21.55,21.55,0,0,1,2.08,9.39v34.28Q849.47,1077.52,843.21,1082Z"/></svg>