<svg id="Layer_1" data-name="Layer 1" xmlns="http://www.w3.org/2000/svg" viewBox="0 0 1993.21 344.84"><defs><style>.cls-1{fill:#000000;}</style></defs><path class="cls-1" d="M424,195.75c15.73-9,24-27.09,24-44.43,0-24.35-16.37-50.23-46.71-50.23H334.49V243.83h9.88v-64h56.09c17.35,0,26.71-14.42,26.71-28s-9.36-28-26.71-28H358v9.88h42.48c12.36,0,16.84,10.83,16.84,18.1S412.82,170,400.46,170H344.37V111h56.94c27,0,36.83,24.13,36.83,40.35s-9.81,40.36-36.83,40.36H358.65v9.87h42.66a47.63,47.63,0,0,0,13.4-1.86h0l30.84,44h12.06l-33.61-48Z"/><path class="cls-1" d="M563.12,195.75c15.72-9,24-27.09,24-44.43,0-24.35-16.37-50.23-46.7-50.23H473.62V111h0v59h0v9.88h0v64h9.87v-64h56.09c17.36,0,26.72-14.42,26.72-28s-9.36-28-26.72-28H497.11v9.88h42.47c12.36,0,16.85,10.83,16.85,18.1S551.94,170,539.58,170H483.49V111h57c27,0,36.82,24.13,36.82,40.35s-9.8,40.36-36.82,40.36H497.77v9.87h42.67a47.63,47.63,0,0,0,13.4-1.86h0l30.83,44h12.05l-33.6-48Z"/><path class="cls-1" d="M863.25,195.75c15.72-9,24-27.09,24-44.43,0-24.35-16.37-50.23-46.71-50.23H773.75V111h0v56.55h-23.5a71.28,71.28,0,1,0,0,9.88h23.5v66.43h9.87V177.4h56.1c17.34,0,26.71-13.78,26.71-26.75s-9.37-26.74-26.71-26.74H797.24v9.88h42.48c12.35,0,16.83,10.08,16.83,16.86s-4.48,16.88-16.83,16.88h-56.1V111h56.94c27,0,36.83,24.13,36.83,40.35s-9.8,40.36-36.83,40.36H797.9v9.87h42.66a47.58,47.58,0,0,0,13.4-1.86h0l30.85,44h12l-33.6-48ZM679.16,233.87a61.41,61.41,0,1,1,61.19-66.35H717.14v4.94a38,38,0,1,1-38-38h4.93V124.6h-4.93a47.86,47.86,0,1,0,47.6,52.8h13.59A61.48,61.48,0,0,1,679.16,233.87Z"/><polygon class="cls-1" points="188.47 163.08 180.74 150.93 212.6 100.81 200.89 100.81 174.91 141.75 148.92 100.81 137.21 100.81 169.07 150.93 161.34 163.08 124.13 101.07 101.09 101.07 101.09 243.83 110.96 243.83 110.96 110.95 118.56 110.95 161.12 181.87 174.91 160.14 188.73 181.87 231.3 110.95 238.89 110.95 238.89 243.83 248.76 243.83 248.76 101.07 225.68 101.07 188.47 163.08"/><rect class="cls-1" x="275.21" y="101.09" width="9.87" height="142.74"/><rect class="cls-1" x="296.26" y="101.17" width="9.87" height="142.66"/><path class="cls-1" d="M1097.23,101.18h-66.81V243.74h66.81c41.33,0,66.92-37,66.92-71.27C1164.15,138,1137.26,101.18,1097.23,101.18Zm-56.94,35.44h54.34c18.65,0,31.18,18.55,31.18,35.88s-12.53,35.85-31.18,35.85h-33.74v11.29h0v14.23h-20.61Zm56.94,97.25h-25.06V219.64h22.46c26.23,0,42.46-24.47,42.46-47.14s-17.06-47.17-42.46-47.17h-54.34V111.05h56.94c34.12,0,57,31.76,57,61.42C1154.27,210.4,1124.67,233.87,1097.23,233.87Z"/><path class="cls-1" d="M934.93,101.18H910.82V243.74h24.11v.1h9.88v-.1h68.66v-9.87H944.81V177.4h33.1v-9.88H920.7V111.05h14.23v42.69h9.88V111.05h68.66v-9.87H934.93Zm0,76.22v56.47H920.7V177.4Z"/><polygon class="cls-1" points="1451.27 101.1 1405.57 243.75 1415.89 243.75 1458.44 110.94 1468.71 110.94 1426.16 243.75 1436.53 243.75 1479.03 110.94 1488.13 110.94 1509.6 177.98 1509.61 178 1468.36 178 1468.36 187.84 1512.76 187.84 1530.63 243.75 1541 243.75 1495.3 101.1 1451.27 101.1"/><polygon class="cls-1" points="1590.09 101.11 1580.22 101.11 1580.22 233.88 1567.13 233.88 1567.13 101.09 1557.26 101.09 1557.26 243.75 1580.22 243.75 1580.22 243.75 1590.09 243.75 1590.09 243.75 1657.22 243.75 1657.22 233.88 1590.09 233.88 1590.09 101.11"/><polygon class="cls-1" points="1701.41 101.1 1691.54 101.1 1691.54 233.88 1678.45 233.88 1678.45 101.09 1668.58 101.09 1668.58 243.75 1691.54 243.75 1691.54 243.75 1701.41 243.75 1701.41 243.75 1768.55 243.75 1768.55 233.88 1701.41 233.88 1701.41 101.1"/><polygon class="cls-1" points="1379.46 233.89 1371.87 233.89 1329.29 163.02 1315.52 184.73 1301.75 163.02 1259.21 233.89 1251.62 233.89 1251.62 101.1 1241.75 101.1 1241.75 243.76 1264.78 243.76 1301.97 181.79 1309.68 193.94 1277.8 244.15 1289.47 244.15 1315.52 203.15 1341.57 244.15 1353.23 244.15 1321.39 193.94 1329.07 181.84 1366.26 243.76 1389.32 243.76 1389.32 101.1 1379.46 101.1 1379.46 233.89"/><path class="cls-1" d="M1882.9,169.16a32.7,32.7,0,0,0-5-4.91c-6.57-5.26-15.61-8.33-26.83-9.16l-20.7-1.58c-6.49-.75-9-2.33-9.87-3.25l-.4-.31c-1.79-1.49-2-2.63-1.92-3.81a9.52,9.52,0,0,1,3.37-7.63c1.54-1.4,5-3.07,13.29-3.07,7.37,0,15.13,1.05,19.25,2.59,10.18,3.81,11.67,4.78,14.65,7.14,4.65,4,7.1,6.36,10.7,13.47v-17c-1.32-1.31-2.76-2.58-4.43-4-4.52-3.55-7.28-5-17.45-8.77-6.36-2.41-15.88-3.25-22.72-3.25-9.3,0-15.83,1.84-19.87,5.62a18.81,18.81,0,0,0-6.66,14.64c-.18,3.12.61,7.63,5.39,11.62,3.29,3.16,8.42,5.05,15.75,5.88l20.87,1.62a52.17,52.17,0,0,1,7.28,1c7.89,1.58,13.81,4.69,17.59,9.34,4.69,6,7.06,14,7.06,23.55-.14,11-4.3,19.25-12.85,25.22-8.77,6.36-20.31,9.65-34.25,9.82-18.69,0-35.88-7.06-50.79-20.83v12.85c15.27,11.84,32.32,17.85,50.83,17.85,16.1-.18,29.51-4.12,40-11.67,11.1-7.76,16.8-18.9,17-33.19C1892.11,187.1,1889,177.1,1882.9,169.16Z"/><path class="cls-1" d="M1795.06,175.43c7.42,7.06,17.11,11.23,28.77,12.33l22.59,2c3.72.14,6.62.93,8.72,2.33,1.28.83,1.89,2.72,1.89,5.61,0,3.6-1.4,6-4.6,8.07-3.78,2.41-8.91,3.64-15.18,3.64-15.7,0-26.4-1.93-38.28-12.15a51.34,51.34,0,0,1-14.61-17.8V197a64.37,64.37,0,0,0,8.34,7.89c13.9,12,27.36,14.43,44.55,14.43,8.2,0,15.09-1.76,20.44-5.13a18.7,18.7,0,0,0,9.21-16.45c0-7.94-3.42-11.93-6.27-13.81-3.6-2.46-8.25-3.77-13.6-4l-22.28-2c-8.24-.74-14.91-3.2-20.39-7.54a30.67,30.67,0,0,1-2.59-2.19c-5.79-5.22-8.68-12.54-8.81-22.15.17-11.79,4-20.35,11.75-26.09,7.81-6,17.94-9,30.17-9a91.67,91.67,0,0,1,14.74,1,65.2,65.2,0,0,1,11.93,3.2,66.88,66.88,0,0,1,17.89,10.88V113.73a78.55,78.55,0,0,0-14.25-7.72,81.47,81.47,0,0,0-13.86-3.72,102.85,102.85,0,0,0-16.45-1.19c-14.42,0-26.62,3.68-36.13,11-10.18,7.58-15.48,19-15.66,34,.13,10.21,2.94,18.77,8.33,25.39A28.06,28.06,0,0,0,1795.06,175.43Z"/></svg>