<?xml version="1.0" encoding="utf-8"?>
<!-- Generator: Adobe Illustrator 25.3.1, SVG Export Plug-In . SVG Version: 6.00 Build 0)  -->
<svg version="1.1" id="Layer_1" xmlns="http://www.w3.org/2000/svg" xmlns:xlink="http://www.w3.org/1999/xlink" x="0px" y="0px"
	 viewBox="0 0 132 132" style="enable-background:new 0 0 132 132;" xml:space="preserve">
<style type="text/css">
	.st0{fill:#000000;}
</style>
<g>
	<path class="st0" d="M77.1,64.2c0.4,2.9-0.3,5.8-2,8.1c-1.7,2.4-4.3,3.9-7.2,4.3c-2.9,0.5-5.8-0.2-8.2-2c-2.4-1.7-3.9-4.2-4.3-7.2
		c-0.5-2.9,0.2-5.8,2-8.1c1.7-2.4,4.3-3.9,7.2-4.3c0.5-0.1,1-0.1,1.6-0.1c0.5,0,1,0.1,1.6,0.1c2.4,0.4,4.5,1.5,6.2,3.1
		C75.6,59.7,76.7,61.8,77.1,64.2z"/>
	<path class="st0" d="M84.2,33.2H47.8c-8,0-14.6,6.6-14.6,14.6v36.5c0,8,6.6,14.6,14.6,14.6h36.5c8,0,14.6-6.6,14.6-14.6V47.8
		C98.8,39.8,92.2,33.2,84.2,33.2z M80.8,76.7c-2.9,3.9-7.1,6.4-11.9,7.2C68,84,67,84,66.1,84c-3.9,0-7.6-1.2-10.8-3.6
		c-3.9-2.9-6.4-7.2-7.2-12s0.5-9.6,3.4-13.5c2.9-3.9,7.2-6.4,12-7.2c1.8-0.2,3.6-0.2,5.3,0c8,1.2,14.2,7.4,15.3,15.4
		c0.1,0.9,0.2,1.8,0.2,2.7C84.4,69.8,83.1,73.5,80.8,76.7z M88.6,48.5c-0.1,0.1-0.4,0.3-0.5,0.4s-0.4,0.2-0.6,0.3
		c-0.2,0.1-0.5,0.2-0.7,0.2c-0.2,0.1-0.5,0.1-0.7,0.1c-1,0-1.9-0.4-2.6-1c-0.3-0.4-0.6-0.7-0.8-1.2c-0.2-0.4-0.3-0.9-0.3-1.4
		c0-1,0.4-1.9,1-2.6c0.9-0.9,2.1-1.2,3.3-1c0.2,0.1,0.5,0.1,0.7,0.2c0.2,0.1,0.4,0.2,0.6,0.3s0.4,0.3,0.5,0.4
		c0.2,0.2,0.3,0.4,0.5,0.6c0.1,0.2,0.2,0.4,0.3,0.6c0.1,0.2,0.1,0.4,0.2,0.7c0.1,0.2,0.1,0.5,0.1,0.7C89.6,46.9,89.3,47.8,88.6,48.5
		z"/>
	<path class="st0" d="M66,0C29.5,0,0,29.5,0,66s29.5,66,66,66s66-29.5,66-66S102.5,0,66,0z M106.1,84.2c0,12.1-9.8,21.9-21.9,21.9
		H47.8c-12.1,0-21.9-9.8-21.9-21.9V47.8c0-12.1,9.8-21.9,21.9-21.9h36.5c12.1,0,21.9,9.8,21.9,21.9V84.2z"/>
</g>
</svg>
