<?xml version="1.0" encoding="utf-8"?>
<!-- Generator: Adobe Illustrator 25.3.1, SVG Export Plug-In . SVG Version: 6.00 Build 0)  -->
<svg version="1.1" id="Layer_1" xmlns="http://www.w3.org/2000/svg" xmlns:xlink="http://www.w3.org/1999/xlink" x="0px" y="0px"
	 viewBox="0 0 176 176" style="enable-background:new 0 0 176 176;" xml:space="preserve">
<style type="text/css">
	.st0{fill:#000000;}
</style>
<path class="st0" d="M88,46c-23.1,0-42,18.8-42,42s18.8,42,42,42s42-18.8,42-42S111.1,46,88,46z M72,111V65l39,22L72,111z"/>
<path class="st0" d="M88,0C39.4,0,0,39.4,0,88s39.4,88,88,88c48.6,0,88-39.4,88-88S136.6,0,88,0z M88,134c-25.4,0-46-20.6-46-46
	c0-25.4,20.6-46,46-46c25.4,0,46,20.6,46,46C134,113.4,113.4,134,88,134z"/>
</svg>
